<svg width="100" height="100" viewBox="0 0 100 100" xmlns="http://www.w3.org/2000/svg">
  <!-- Outer circle border (cyan/teal) -->
  <circle cx="50" cy="50" r="48" fill="none" stroke="#5dd9d1" stroke-width="2"/>
  <circle cx="50" cy="50" r="45" fill="none" stroke="#5dd9d1" stroke-width="1"/>
  
  <!-- Gradient background -->
  <defs>
    <linearGradient id="skyGradient" x1="0%" y1="0%" x2="0%" y2="100%">
      <stop offset="0%" style="stop-color:#87CEEB;stop-opacity:1" />
      <stop offset="100%" style="stop-color:#E0F6FF;stop-opacity:1" />
    </linearGradient>
    <linearGradient id="mountainGradient" x1="0%" y1="0%" x2="0%" y2="100%">
      <stop offset="0%" style="stop-color:#B0BEC5;stop-opacity:1" />
      <stop offset="100%" style="stop-color:#CFD8DC;stop-opacity:1" />
    </linearGradient>
  </defs>
  
  <!-- Sky background -->
  <circle cx="50" cy="50" r="43" fill="url(#skyGradient)"/>
  
  <!-- Mountains (simplified) -->
  <path d="M 10 40 L 30 15 L 50 35 L 70 10 L 90 40 Z" fill="url(#mountainGradient)" stroke="#607D8B" stroke-width="1"/>
  
  <!-- Truck (simplified) -->
  <rect x="35" y="45" width="30" height="20" fill="#263238" stroke="#90A4AE" stroke-width="1" rx="1"/>
  <rect x="38" y="48" width="24" height="8" fill="#37474F" stroke="#78909C" stroke-width="0.5"/>
  <text x="50" y="60" font-family="monospace" font-size="6" fill="#90A4AE" text-anchor="middle">007</text>
  
  <!-- Waves (simplified) -->
  <path d="M 10 70 Q 20 65 30 70 T 50 70 T 70 70 T 90 70" fill="none" stroke="#5dd9d1" stroke-width="2"/>
  <path d="M 10 75 Q 20 70 30 75 T 50 75 T 70 75 T 90 75" fill="none" stroke="#5dd9d1" stroke-width="1.5"/>
</svg>
